<mxfile host="www.draw.io" modified="2020-01-27T07:08:00.805Z" agent="Mozilla/5.0 (Windows NT 10.0; Win64; x64) AppleWebKit/537.36 (KHTML, like Gecko) Chrome/79.0.3945.130 Safari/537.36" etag="aAPJDMkactEEye6kdReO" version="12.5.8" type="github">
  <diagram id="FFd1XqcRoBSRBbn-Ny9c" name="Page-1">
    <mxGraphModel dx="1422" dy="745" grid="1" gridSize="10" guides="1" tooltips="1" connect="1" arrows="1" fold="1" page="1" pageScale="1" pageWidth="1169" pageHeight="827" math="0" shadow="0">
      <root>
        <mxCell id="0"/>
        <mxCell id="1" parent="0"/>
        <mxCell id="fFfQomM4RcmljjM8Dg_y-1" value="Digital Signature" style="text;html=1;align=center;verticalAlign=middle;resizable=0;points=[];autosize=1;fontSize=30;fontStyle=1" parent="1" vertex="1">
          <mxGeometry x="459" y="20" width="250" height="40" as="geometry"/>
        </mxCell>
        <mxCell id="IH-IT71rxQI0cDf8x-Qy-3" value="Alice" style="shape=umlActor;verticalLabelPosition=bottom;labelBackgroundColor=#ffffff;verticalAlign=top;html=1;outlineConnect=0;fontSize=16;" vertex="1" parent="1">
          <mxGeometry x="200" y="360" width="30" height="60" as="geometry"/>
        </mxCell>
        <mxCell id="IH-IT71rxQI0cDf8x-Qy-4" value="Bob" style="shape=umlActor;verticalLabelPosition=bottom;labelBackgroundColor=#ffffff;verticalAlign=top;html=1;outlineConnect=0;fontSize=16;" vertex="1" parent="1">
          <mxGeometry x="1040" y="360" width="30" height="60" as="geometry"/>
        </mxCell>
        <mxCell id="IH-IT71rxQI0cDf8x-Qy-6" value="Alice&#39;s&lt;br style=&quot;font-size: 16px;&quot;&gt;Private Key" style="pointerEvents=1;shadow=0;dashed=0;html=1;strokeColor=none;labelPosition=center;verticalLabelPosition=bottom;verticalAlign=top;outlineConnect=0;align=center;shape=mxgraph.office.security.key_permissions;fillColor=#DA4026;fontSize=16;" vertex="1" parent="1">
          <mxGeometry x="30" y="360" width="25" height="53" as="geometry"/>
        </mxCell>
        <mxCell id="IH-IT71rxQI0cDf8x-Qy-7" value="Alice&#39;s&lt;br style=&quot;font-size: 16px;&quot;&gt;Public Key" style="pointerEvents=1;shadow=0;dashed=0;html=1;strokeColor=none;labelPosition=center;verticalLabelPosition=bottom;verticalAlign=top;outlineConnect=0;align=center;shape=mxgraph.office.security.key_permissions;fillColor=#7FBA42;fontSize=16;" vertex="1" parent="1">
          <mxGeometry x="572" y="160" width="25" height="53" as="geometry"/>
        </mxCell>
        <mxCell id="IH-IT71rxQI0cDf8x-Qy-9" value="[M]&lt;sub style=&quot;font-size: 16px;&quot;&gt;Alice&lt;/sub&gt;" style="rounded=0;whiteSpace=wrap;html=1;fontSize=16;" vertex="1" parent="1">
          <mxGeometry x="524" y="360" width="120" height="60" as="geometry"/>
        </mxCell>
        <mxCell id="IH-IT71rxQI0cDf8x-Qy-10" value="" style="endArrow=classic;html=1;fontSize=16;" edge="1" parent="1">
          <mxGeometry width="50" height="50" relative="1" as="geometry">
            <mxPoint x="50" y="390" as="sourcePoint"/>
            <mxPoint x="200" y="390" as="targetPoint"/>
          </mxGeometry>
        </mxCell>
        <mxCell id="IH-IT71rxQI0cDf8x-Qy-11" value="" style="endArrow=classic;html=1;entryX=0;entryY=0.5;entryDx=0;entryDy=0;fontSize=16;" edge="1" parent="1" target="IH-IT71rxQI0cDf8x-Qy-9">
          <mxGeometry width="50" height="50" relative="1" as="geometry">
            <mxPoint x="240" y="390" as="sourcePoint"/>
            <mxPoint x="390" y="380" as="targetPoint"/>
          </mxGeometry>
        </mxCell>
        <mxCell id="IH-IT71rxQI0cDf8x-Qy-12" value="" style="endArrow=classic;html=1;entryX=0.25;entryY=0.1;entryDx=0;entryDy=0;entryPerimeter=0;fontSize=16;" edge="1" parent="1" source="IH-IT71rxQI0cDf8x-Qy-7" target="IH-IT71rxQI0cDf8x-Qy-4">
          <mxGeometry width="50" height="50" relative="1" as="geometry">
            <mxPoint x="10" y="520" as="sourcePoint"/>
            <mxPoint x="60" y="470" as="targetPoint"/>
          </mxGeometry>
        </mxCell>
        <mxCell id="IH-IT71rxQI0cDf8x-Qy-13" value="" style="endArrow=classic;html=1;exitX=1;exitY=0.5;exitDx=0;exitDy=0;fontSize=16;" edge="1" parent="1" source="IH-IT71rxQI0cDf8x-Qy-9">
          <mxGeometry width="50" height="50" relative="1" as="geometry">
            <mxPoint x="644" y="389.5" as="sourcePoint"/>
            <mxPoint x="1040" y="390" as="targetPoint"/>
          </mxGeometry>
        </mxCell>
        <mxCell id="IH-IT71rxQI0cDf8x-Qy-14" value="{[M]&lt;sub style=&quot;font-size: 16px;&quot;&gt;Alice&lt;/sub&gt;}&lt;sub style=&quot;font-size: 16px;&quot;&gt;Alice&lt;/sub&gt; = M" style="text;html=1;align=center;verticalAlign=middle;resizable=0;points=[];autosize=1;fontSize=16;" vertex="1" parent="1">
          <mxGeometry x="980" y="465" width="150" height="30" as="geometry"/>
        </mxCell>
        <mxCell id="IH-IT71rxQI0cDf8x-Qy-15" value="Alice signs M with her Private Key" style="whiteSpace=wrap;html=1;shape=partialRectangle;top=0;left=0;bottom=1;right=0;points=[[0,1],[1,1]];strokeColor=#000000;fillColor=none;align=center;verticalAlign=bottom;routingCenterY=0.5;snapToPoint=1;container=1;recursiveResize=0;autosize=1;treeFolding=1;treeMoving=1;fontSize=16;" vertex="1" parent="1">
          <mxGeometry x="55" y="290" width="130" height="20" as="geometry"/>
        </mxCell>
        <mxCell id="IH-IT71rxQI0cDf8x-Qy-16" value="" style="edgeStyle=entityRelationEdgeStyle;startArrow=none;endArrow=none;segment=10;curved=1;fontSize=16;exitX=1;exitY=1;exitDx=0;exitDy=0;entryX=0.25;entryY=0.1;entryDx=0;entryDy=0;entryPerimeter=0;dashed=1;" edge="1" target="IH-IT71rxQI0cDf8x-Qy-3" parent="1" source="IH-IT71rxQI0cDf8x-Qy-15">
          <mxGeometry relative="1" as="geometry">
            <mxPoint x="200" y="370" as="sourcePoint"/>
            <mxPoint x="260" y="340" as="targetPoint"/>
          </mxGeometry>
        </mxCell>
        <mxCell id="IH-IT71rxQI0cDf8x-Qy-17" value="The same thing as&amp;nbsp;&lt;br&gt;encrypt with her Private Key" style="text;html=1;align=center;verticalAlign=middle;resizable=0;points=[];autosize=1;fontSize=16;" vertex="1" parent="1">
          <mxGeometry x="30" y="520" width="210" height="40" as="geometry"/>
        </mxCell>
        <mxCell id="IH-IT71rxQI0cDf8x-Qy-18" value="" style="endArrow=none;dashed=1;html=1;fontSize=16;exitX=0.486;exitY=0.025;exitDx=0;exitDy=0;exitPerimeter=0;" edge="1" parent="1" source="IH-IT71rxQI0cDf8x-Qy-17">
          <mxGeometry width="50" height="50" relative="1" as="geometry">
            <mxPoint x="10" y="630" as="sourcePoint"/>
            <mxPoint x="132" y="390" as="targetPoint"/>
          </mxGeometry>
        </mxCell>
        <mxCell id="IH-IT71rxQI0cDf8x-Qy-19" value="Bob uses Alice&#39;s Public Key to verify M" style="whiteSpace=wrap;html=1;shape=partialRectangle;top=0;left=0;bottom=1;right=0;points=[[0,1],[1,1]];strokeColor=#000000;fillColor=none;align=center;verticalAlign=bottom;routingCenterY=0.5;snapToPoint=1;container=1;recursiveResize=0;autosize=1;treeFolding=1;treeMoving=1;fontSize=16;" vertex="1" parent="1">
          <mxGeometry x="980" y="280" width="165" height="20" as="geometry"/>
        </mxCell>
        <mxCell id="IH-IT71rxQI0cDf8x-Qy-20" value="" style="edgeStyle=entityRelationEdgeStyle;startArrow=none;endArrow=none;segment=10;curved=1;dashed=1;fontSize=16;exitX=0.75;exitY=0.1;exitDx=0;exitDy=0;exitPerimeter=0;" edge="1" target="IH-IT71rxQI0cDf8x-Qy-19" parent="1" source="IH-IT71rxQI0cDf8x-Qy-4">
          <mxGeometry relative="1" as="geometry">
            <mxPoint x="1000" y="310" as="sourcePoint"/>
          </mxGeometry>
        </mxCell>
      </root>
    </mxGraphModel>
  </diagram>
</mxfile>
